# xmcd
#
# Track frame offsets: 
#        150
#        8980
#        22694
#        36369
#        59452
#        74935
#        89066
#        102897
#        115578
#        131578
#        143241
#
# Disc length: 2260 seconds
#
# Revision: 0
# Processed by: cddbd v1.5.2PL0 Copyright (c) Steve Scherf et al.
# Submitted via: ExactAudioCopy v0.99pb5
#
DISCID=9b08d20b
DTITLE=Voormann and Friends - A Sideman´s Journey
DYEAR=2009
DGENRE=
TTITLE0=I´m in love again
TTITLE1=Blue Suede Shoes
TTITLE2=All things must pass
TTITLE3=Have you seen my baby
TTITLE4=My sweet Lord
TTITLE5=Migthy Quinn 
TTITLE6=Short people
TTITLE7=The day the world gets round
TTITLE8=So far
TTITLE9=You´re sixteen
TTITLE10=Such a night
EXTD=
EXTT0=
EXTT1=
EXTT2=
EXTT3=
EXTT4=
EXTT5=
EXTT6=
EXTT7=
EXTT8=
EXTT9=
EXTT10=
PLAYORDER=
